<?xml version="1.0" standalone="no"?>
<!DOCTYPE svg PUBLIC "-//W3C//DTD SVG 20010904//EN"
 "http://www.w3.org/TR/2001/REC-SVG-20010904/DTD/svg10.dtd">
<svg version="1.0" xmlns="http://www.w3.org/2000/svg"
 width="1080.000000pt" height="1080.000000pt" viewBox="0 0 1080.000000 1080.000000"
 preserveAspectRatio="xMidYMid meet">

<g transform="translate(0.000000,1080.000000) scale(0.100000,-0.100000)"
fill="#000000" stroke="none">
<path d="M2463 9549 c-499 -39 -941 -390 -1098 -874 -64 -199 -60 23 -60
-3020 0 -2561 1 -2766 17 -2850 88 -466 423 -849 861 -989 201 -64 6 -59 2636
-63 l2395 -4 256 256 c235 234 259 255 290 255 32 0 77 -42 686 -651 l652
-651 7 1953 c3 1075 5 2757 3 3739 -5 1954 -1 1833 -63 2025 -122 379 -441
699 -818 819 -202 64 29 60 -2952 62 -1490 1 -2756 -2 -2812 -7z m2019 -1928
c52 -106 77 -148 88 -146 8 2 83 12 165 21 210 25 700 26 905 1 80 -10 153
-20 162 -23 14 -4 33 25 93 147 l76 151 42 -6 c71 -11 432 -104 627 -161 236
-69 348 -108 430 -151 63 -33 68 -39 146 -162 456 -717 703 -1440 764 -2231
13 -173 13 -528 0 -701 -8 -102 -15 -139 -28 -153 -26 -29 -340 -235 -477
-313 -241 -136 -547 -272 -810 -358 -60 -20 -115 -34 -121 -32 -33 13 -308
465 -298 491 3 6 55 33 117 58 127 53 329 158 333 172 3 10 -78 75 -92 75 -4
0 -80 -29 -170 -65 -270 -108 -551 -181 -860 -222 -179 -23 -589 -23 -768 0
-308 41 -586 113 -860 222 -91 36 -168 65 -171 65 -3 0 -26 -15 -51 -34 -41
-32 -43 -35 -28 -51 21 -20 242 -131 352 -175 64 -26 82 -38 82 -54 0 -40
-264 -471 -297 -483 -14 -6 -213 61 -383 129 -272 109 -590 277 -830 437 -174
117 -198 135 -205 150 -23 57 -33 616 -15 847 64 807 318 1540 782 2256 66
102 73 109 132 137 153 72 645 217 1031 304 61 14 60 15 137 -142z"/>
<path d="M4153 5965 c-87 -24 -154 -64 -223 -134 -116 -117 -166 -260 -157
-446 8 -159 62 -280 170 -382 106 -100 212 -139 355 -130 207 13 388 178 443
407 17 71 17 219 0 290 -34 144 -141 290 -257 352 -100 54 -229 70 -331 43z"/>
<path d="M5994 5961 c-380 -109 -500 -650 -210 -946 121 -124 285 -172 446
-131 217 56 379 283 380 532 0 136 -30 239 -101 345 -118 175 -323 255 -515
200z"/>
</g>
</svg>
