<?xml version="1.0" standalone="no"?>
<!DOCTYPE svg PUBLIC "-//W3C//DTD SVG 20010904//EN"
 "http://www.w3.org/TR/2001/REC-SVG-20010904/DTD/svg10.dtd">
<svg version="1.0" xmlns="http://www.w3.org/2000/svg"
 width="1080.000000pt" height="1080.000000pt" viewBox="0 0 1080.000000 1080.000000"
 preserveAspectRatio="xMidYMid meet">

<g transform="translate(0.000000,1080.000000) scale(0.100000,-0.100000)"
fill="#000000" stroke="none">
<path d="M6505 8525 c-33 -8 -74 -14 -91 -14 -34 -1 -219 -53 -269 -75 -186
-84 -215 -100 -293 -155 -35 -25 -71 -50 -80 -56 -25 -16 -235 -227 -259 -263
-13 -17 -23 -35 -23 -41 0 -5 -4 -11 -8 -13 -13 -5 -66 -79 -94 -132 -71 -133
-109 -226 -135 -331 -8 -33 -21 -82 -29 -110 -27 -100 -36 -317 -20 -480 9
-92 11 -154 6 -159 -6 -6 -43 -5 -97 3 -49 7 -135 17 -193 21 -108 9 -360 52
-440 75 -25 7 -72 18 -105 25 -33 6 -78 18 -100 25 -22 7 -56 16 -75 20 -19 3
-44 10 -55 15 -51 23 -99 40 -112 40 -8 0 -29 6 -46 14 -18 8 -54 22 -82 32
-27 10 -61 24 -75 31 -14 7 -35 13 -46 13 -12 0 -27 7 -34 15 -7 8 -21 15 -31
15 -10 0 -21 5 -24 10 -3 6 -14 10 -24 10 -10 0 -24 6 -30 14 -7 8 -23 17 -37
20 -31 8 -221 100 -243 119 -9 7 -36 23 -61 36 -25 12 -65 35 -90 51 -25 17
-56 35 -70 42 -14 7 -38 21 -55 33 -47 32 -68 44 -92 55 -13 5 -23 13 -23 18
0 5 -17 17 -37 28 -21 10 -40 21 -43 24 -17 17 -100 80 -105 80 -8 0 -101 77
-131 108 -12 12 -25 22 -28 22 -19 0 -347 319 -495 480 l-54 59 -26 -37 c-27
-37 -91 -161 -91 -176 0 -5 -6 -22 -14 -39 -40 -92 -76 -305 -76 -457 0 -169
49 -421 101 -522 5 -10 9 -23 9 -28 0 -12 34 -94 52 -125 7 -11 19 -34 28 -51
9 -16 26 -44 38 -61 12 -17 22 -35 22 -40 0 -4 20 -31 45 -60 25 -28 45 -55
45 -60 0 -8 68 -86 113 -130 67 -65 145 -133 154 -133 16 0 53 -45 53 -64 0
-14 -5 -17 -22 -11 -13 4 -63 10 -113 14 -49 4 -110 13 -135 19 -25 6 -76 18
-115 27 -38 9 -74 20 -80 25 -5 5 -27 11 -48 15 -20 4 -37 10 -37 14 0 4 -25
18 -55 30 -30 13 -55 27 -55 32 0 5 -7 9 -15 9 -20 0 -20 -109 0 -165 8 -22
15 -52 15 -67 0 -14 15 -75 34 -135 36 -115 45 -140 81 -218 13 -27 27 -61 31
-75 4 -14 16 -38 28 -55 27 -39 42 -63 61 -102 9 -17 25 -39 36 -49 10 -9 19
-21 19 -26 0 -23 275 -298 298 -298 5 0 18 -10 30 -22 11 -13 43 -34 69 -48
26 -14 50 -28 53 -31 11 -15 220 -117 251 -124 19 -4 39 -11 44 -14 13 -10 92
-37 128 -45 41 -10 33 -19 -33 -38 -81 -24 -501 -26 -556 -3 -46 19 -59 11
-35 -23 10 -15 21 -38 25 -52 4 -14 11 -34 16 -45 5 -11 19 -42 31 -69 43 -99
163 -276 217 -319 12 -10 22 -25 22 -33 0 -8 6 -14 13 -14 8 0 20 -11 27 -25
7 -14 18 -25 24 -25 7 0 23 -12 37 -28 33 -36 118 -104 149 -120 36 -18 114
-64 120 -71 10 -12 137 -71 153 -71 8 0 18 -4 21 -9 4 -5 32 -17 64 -26 31 -9
73 -23 92 -30 33 -13 100 -24 284 -46 43 -5 82 -12 87 -15 18 -11 8 -32 -17
-38 -15 -4 -39 -19 -54 -34 -31 -30 -149 -114 -214 -151 -22 -13 -43 -27 -46
-30 -3 -4 -40 -24 -83 -46 -43 -21 -81 -43 -83 -47 -3 -4 -12 -8 -20 -8 -8 0
-32 -11 -54 -25 -22 -14 -44 -25 -50 -25 -6 0 -40 -14 -75 -30 -35 -17 -69
-30 -74 -30 -6 0 -25 -6 -43 -14 -18 -7 -51 -19 -73 -26 -22 -7 -53 -18 -70
-26 -16 -7 -55 -18 -85 -23 -30 -5 -91 -19 -135 -30 -44 -11 -94 -20 -111 -21
-17 0 -51 -7 -74 -15 -47 -16 -630 -41 -767 -33 -40 3 -73 2 -73 -1 1 -10 79
-61 93 -61 7 0 18 -5 24 -11 27 -27 441 -232 543 -269 19 -7 49 -19 67 -26 17
-8 36 -14 42 -14 6 0 19 -4 29 -9 41 -22 279 -101 305 -101 9 0 31 -6 49 -14
41 -17 199 -55 298 -72 41 -7 98 -17 125 -22 28 -6 97 -15 155 -22 58 -6 157
-18 221 -26 155 -19 543 -19 724 1 77 8 185 20 240 26 55 6 123 15 150 21 28
5 77 13 110 18 75 12 280 58 320 71 38 14 88 27 145 41 25 6 50 14 55 18 6 4
26 11 45 15 19 4 58 18 87 31 28 13 59 24 68 24 15 0 51 14 162 66 28 13 56
24 61 24 7 0 160 76 377 188 17 8 32 19 35 22 3 4 21 16 40 26 19 11 68 42
109 69 41 28 93 61 115 74 23 13 43 27 46 31 3 3 27 22 55 41 27 18 59 44 71
57 12 12 25 22 29 22 5 0 31 21 59 48 28 26 71 63 96 82 72 57 310 293 310
307 0 7 6 13 14 13 7 0 21 11 30 25 9 13 31 40 49 59 51 54 107 124 107 133 0
5 12 20 28 33 30 27 82 94 82 106 0 4 15 25 33 48 18 23 46 61 62 86 17 25 33
48 38 51 4 3 17 23 29 45 11 21 23 41 27 44 4 3 12 16 18 30 18 36 55 100 78
135 33 50 45 69 51 85 17 43 78 161 85 166 5 3 9 13 9 22 0 10 11 33 24 53 14
20 28 52 31 72 4 20 13 41 21 48 8 6 14 20 14 30 0 10 5 21 10 24 6 3 10 14
10 24 0 10 6 24 14 30 8 7 17 28 21 48 4 21 15 54 26 74 10 21 23 54 28 76 5
21 18 62 29 90 11 29 23 71 27 93 4 22 10 42 15 45 4 3 11 22 15 42 4 21 18
76 31 122 13 46 24 99 24 118 0 20 7 56 15 82 8 25 20 93 26 151 6 58 18 146
25 195 8 50 17 216 21 378 4 171 10 287 16 287 5 0 24 12 42 28 17 15 42 34
55 42 13 8 45 34 70 58 26 23 51 42 57 42 5 0 22 14 38 30 16 17 35 30 42 30
7 0 13 4 13 9 0 5 61 72 136 148 74 76 141 148 147 159 10 18 60 84 107 141
28 34 10 31 -150 -26 -63 -22 -125 -41 -136 -41 -12 0 -35 -7 -50 -15 -16 -8
-37 -15 -46 -15 -18 0 -69 -11 -163 -36 -27 -7 -88 -20 -135 -29 -47 -10 -92
-21 -101 -26 -11 -6 -21 -4 -29 6 -10 13 -9 19 5 35 10 11 22 20 27 20 12 0
67 40 94 68 12 12 25 22 29 22 29 0 265 239 265 268 0 6 6 15 13 19 6 4 25 28
41 53 16 25 36 56 45 70 29 44 81 162 81 182 0 8 4 18 9 23 12 14 23 65 14 64
-5 0 -21 -9 -38 -19 -51 -32 -267 -137 -330 -160 -33 -12 -68 -26 -77 -31 -32
-16 -163 -60 -203 -69 -22 -4 -85 -19 -140 -34 -55 -14 -107 -26 -116 -26 -17
0 -69 38 -136 101 -23 21 -46 39 -51 39 -5 0 -17 9 -26 19 -10 11 -32 27 -49
36 -40 20 -63 34 -104 62 -17 13 -34 23 -38 23 -3 0 -35 14 -70 30 -35 17 -69
30 -76 30 -6 0 -23 6 -37 14 -45 23 -195 66 -268 76 -38 5 -91 14 -119 19 -74
14 -301 11 -370 -4z"/>
</g>
</svg>
